<?xml version="1.0" encoding="utf-8" ?>
<svg xmlns="http://www.w3.org/2000/svg" xmlns:xlink="http://www.w3.org/1999/xlink" width="1080" height="1080">
	<path fill="#1A255B" d="M455.876 79.1698C457.015 79.0672 458.77 78.9039 459.864 79.1996C460.106 79.2651 461.02 79.6197 461.26 79.8928C463.647 82.6146 465.243 87.6334 467.052 90.9143C470.019 96.2961 473.36 101.485 476.227 106.92C481.871 117.622 487.202 128.731 493.307 139.162C524.804 135.637 555.56 136.425 587.082 138.759C590.124 134.463 592.193 129.673 594.729 125.085L612.61 92.9873C615.044 88.5525 616.846 83.3276 620.001 79.3788C624.029 79.7925 627.919 81.3258 631.814 82.3973C638.916 84.351 646.037 86.1835 653.128 88.1906C659.154 89.8962 665.291 90.7956 671.325 92.3678C678.874 94.3348 686.275 96.8633 693.818 98.8657C694.664 121.669 692.926 144.632 693.978 167.473C699.036 170.227 704.99 171.924 710.249 174.579C732.495 185.814 755.187 198.568 774.756 214.042L812.38 191.853C819.418 187.672 825.718 183.262 833.098 179.574C833.877 180.124 834.638 180.7 835.419 181.248C839.564 184.154 842.589 188.092 846.072 191.726C848.611 194.375 851.465 196.703 854.052 199.305C856.571 201.839 858.843 204.618 861.349 207.172C869.491 215.47 879.574 223.376 886.335 232.793C884.068 240.254 879.822 246.405 875.708 252.926C873.072 257.104 870.86 261.533 868.209 265.687C865.166 270.458 861.647 275.006 858.875 279.939C857.393 282.578 856.529 287.594 854.366 289.53C853.742 290.087 853.505 290.319 853.13 291.049C855.291 296.982 860.324 302.381 863.904 307.578C868.85 314.758 873.866 322.235 878.344 329.711C880.997 334.141 883.105 338.943 885.481 343.527C888.235 348.841 891.37 354.053 893.777 359.533C895.749 364.021 897.157 368.757 899.109 373.282C909.545 373.335 949.909 374.741 956.957 371.628C959.709 370.413 961.566 370.606 964.496 370.863L967.781 373.855C973.03 390.471 976.69 407.425 981.209 424.224C983.303 432.01 987.422 439.375 987.485 447.536C977.651 449.694 968.509 456.83 959.736 461.703C953.614 465.103 947.295 468.179 941.215 471.642C936.689 474.219 932.633 478.018 927.427 479.042C927.726 490.051 928.944 501.366 930.008 512.338C930.49 517.308 931.436 522.366 931.443 527.359C931.449 531.459 930.433 535.682 929.978 539.762C928.754 550.728 927.251 562.663 927.614 573.644C931.348 575.382 935.16 576.915 938.793 578.873C945.182 582.318 951.251 586.384 957.648 589.848C967.366 595.112 977.626 600.022 987.063 605.717C987.033 607.618 986.768 609.438 986.324 611.287C985.106 616.366 982.952 621.292 981.509 626.327C978.997 635.09 970.553 674.65 967.065 678.936C963.535 680.124 905.49 679.557 898.723 678.699C895.778 688.281 891.417 696.011 886.977 704.885C884.552 709.732 882.433 714.924 879.635 719.561C877.142 723.694 874.241 727.581 871.726 731.716C868.766 736.583 866.173 742.001 862.125 746.066C857.223 750.991 848.347 753.942 842.11 756.891C835.417 760.056 828.562 762.863 821.886 766.026C817.918 767.906 814.086 770.278 810.013 771.898C807.055 773.075 803.819 773.497 800.813 774.582C790.253 778.392 779.733 782.737 769.086 786.261C765.406 787.479 761.566 788.244 757.843 789.331C743.528 793.508 728.967 797.771 714.363 800.825C708.531 802.044 702.573 802.818 696.712 803.932C688.899 805.419 679.891 808.542 671.987 808.422L671.48 807.691C671.31 800.227 675.113 792.257 677.764 785.422C686.359 763.259 699.169 742.56 716.633 726.25C719.896 723.202 724.011 721.136 727.319 718.136C734.566 711.563 740.911 703.857 747.287 696.471C750.712 692.504 754.403 688.73 757.588 684.563C768.84 669.847 781.98 649.807 789.475 632.967C791.738 627.884 792.995 622.458 795.161 617.377C796.712 613.738 798.939 610.408 800.423 606.729C804.567 596.455 807.963 580.391 810.24 569.281C820.193 521.999 817.106 472.901 801.31 427.239C800.15 423.797 797.991 420.793 796.596 417.449C794.571 412.594 793.147 407.485 791.111 402.61C788.712 396.865 785.501 391.51 782.529 386.052C773.075 368.692 762.269 352.298 749.507 337.145C746.949 334.106 743.88 331.513 741.152 328.627C733.95 321.007 726.746 313.522 718.93 306.493C703.583 292.693 680.698 276.961 661.601 269.151C652.558 263.419 641.698 259.415 631.603 255.91C624.002 253.271 615.857 250.3 608.023 248.553C603.66 247.579 599.176 247.185 594.803 246.257C590.278 245.298 585.837 243.982 581.274 243.192C554.777 238.609 525.62 238.724 499.126 243.314C494.581 244.101 490.149 245.45 485.634 246.384C481.149 247.31 476.584 247.767 472.122 248.82C459.957 251.69 436.754 259.91 425.591 265.39C385.554 285.048 347.161 313.932 320.593 350.135C317.8 353.941 315.519 358.077 312.887 361.989C310.442 365.625 307.511 368.921 305.153 372.619C300.622 379.725 294.688 391.288 291.097 398.965C288.813 403.851 287.104 408.918 285.086 413.908C283.203 418.566 280.851 423.026 279.252 427.798C268.747 459.15 262.503 495.871 264.579 528.899C265.1 537.176 266.564 545.174 267.762 553.355C269.311 563.93 270.916 574.145 273.564 584.52C282.176 618.251 298.6 652.413 319.682 680.181C325.839 688.292 332.856 696.167 339.557 703.837C345.836 711.024 352.848 716.651 359.835 723.043C369.561 731.94 378.118 741.191 385.717 751.991C388.207 755.532 391.22 759.249 393.11 763.148C396.598 770.349 411.368 801.954 409.126 808.246C407.993 808.545 407.055 808.498 405.901 808.373C401.207 807.867 396.286 805.846 391.5 805.038C384.347 803.831 377.058 802.957 369.963 801.497C355.531 798.528 341.263 794.275 327.121 790.187C322.104 788.737 316.966 787.647 311.987 786.077C293.677 780.246 275.716 773.37 258.193 765.482C248.857 761.378 239.808 757.604 230.783 752.799C227.171 750.876 219.624 748.504 217.2 745.361C217.068 745.19 216.948 745.009 216.816 744.838C213.355 740.345 210.962 735.358 208.035 730.53C206.061 727.274 203.712 724.258 201.743 720.999C199.277 716.916 197.435 712.407 195.236 708.173C190.259 698.589 185.061 689.823 181.797 679.405C174.477 678.251 166.86 678.78 159.476 678.884L129.704 679.365C125.029 679.455 118.802 680.357 114.354 679.145C113.468 678.903 113.259 678.89 112.821 678.047C109.816 672.259 107.065 657.943 105.429 651.099C103.537 643.185 101.434 635.118 99.3489 627.252C97.9372 621.926 95.422 616.669 94.3946 611.282C94.0514 609.482 93.8795 607.134 94.5183 605.389C94.6116 605.134 94.6553 604.847 94.8232 604.633C95.7092 603.506 102.966 600.657 104.637 599.722C108.305 597.67 111.788 595.298 115.477 593.276C120.855 590.326 126.468 587.76 131.793 584.725C138.839 580.71 145.334 576.566 152.679 573.028C152.333 563.448 151.102 553.987 150.661 544.453C150.13 532.942 150.594 521.02 150.682 509.478C150.75 500.519 153.112 491.523 152.536 482.553C152.479 481.659 152.281 479.698 151.704 478.975C150.07 476.928 115.758 457.859 110.903 455.239C105.395 452.267 98.7137 449.77 93.9729 445.685C94.1457 438.937 97.0547 432.352 98.8482 425.912C100.833 418.787 102.589 411.541 104.492 404.384C107.401 393.442 109.627 381.949 113.127 371.215C120.703 370.753 128.8 370.108 136.357 370.839C140.614 371.251 144.761 372.471 149.038 372.776C159.6 373.528 170.62 373.545 181.211 373.152C183.196 369.18 184.413 364.79 186.352 360.757C196.403 339.85 208.035 319.186 221.725 300.469C223.815 297.612 225.316 294.515 228.19 292.337C224.794 287.762 223.005 282.304 220.137 277.413C217.469 272.862 214.451 268.516 211.753 263.982C205.614 253.663 199.68 243.147 193.362 232.946C198.671 225.991 206.069 219.717 212.284 213.492C223.716 202.042 235.028 190.432 246.726 179.255C251.541 180.418 299.875 209.64 305.274 213.938C312.491 209.255 319.307 204.058 326.463 199.347C329.846 197.121 333.495 195.304 336.914 193.131C341.013 190.525 344.915 187.514 349.216 185.247C356.837 181.231 364.656 177.27 372.379 173.457C376.081 171.629 382.455 170.258 385.257 167.454C387.114 165.597 386.304 107.711 386.345 99.6779C397.426 94.8445 408.963 92.603 420.655 89.8973C426.613 88.5184 432.508 86.7258 438.407 85.1103C444.383 83.4739 450.407 82.1948 455.876 79.1698Z"/>
	<path fill="#E44827" d="M560.059 371.966C562.13 371.138 564.115 370.401 566.338 370.091C571.86 369.322 594.856 371.158 597.957 368.583C598.597 368.051 599.278 366.492 599.594 365.736C600.752 362.963 606.769 341.432 606.993 339.07C607.077 338.175 606.853 337.507 606.538 336.685C602.378 332.345 601.965 332.061 602.159 325.356C602.324 319.604 604.289 314.179 608.646 310.278C612.448 306.875 618.314 306.009 623.261 306.523C628.393 307.057 632.674 310.421 635.66 314.482C638.631 318.524 638.602 324.872 637.77 329.652C637.197 332.946 635.796 336.041 632.971 337.991C629.964 340.067 626.119 340.887 623.781 343.839C618.797 350.132 614.43 380.975 608.476 384.251C606.219 385.493 579.927 384.864 574.801 385.206C574.766 394.44 573.888 404.666 575.224 413.774C583.506 414.354 592.834 415.303 600.971 413.303C606.226 412.011 657.237 383.833 660.855 380.811C662.332 374.444 664.196 368.286 670.221 364.73C674.295 362.326 679.871 361.452 684.453 362.72C688.86 363.94 692.31 367.146 694.513 371.079C697.2 375.874 697.569 381.531 695.921 386.736C694.537 391.104 691.799 394.817 687.587 396.784C683.128 398.866 676.622 399.01 671.977 397.263C670.934 396.871 669.946 396.339 668.977 395.796C658.168 400.773 647.698 406.754 637.336 412.604C629.046 417.283 613.022 427.92 604.012 429.485C594.713 431.101 584.242 429.509 574.766 429.908L574.794 457.712C583.69 457.621 593.129 458.12 601.975 457.192C607.628 456.599 612.968 454.221 618.716 454.226C621.035 454.229 623.74 454.62 625.338 456.489C627.111 458.563 626.788 461.7 626.319 464.174C625.962 466.06 625.479 467.255 623.791 468.362C619.083 471.449 611.651 472.069 606.249 473.629C599.373 472.643 584.42 473.373 577 473.76L575.322 473.949C573.541 479.23 574.764 496.478 574.833 503.04C582.489 503.021 605.331 500.935 610.53 505.708C612.086 507.136 612.839 509.163 612.855 511.249C612.87 513.131 612.527 515.549 611.268 517.036C610.604 517.82 609.555 518.269 608.637 518.674C598.151 520.016 587.375 519.11 576.823 519.694L575.291 520.102C573.585 525.309 574.859 542.481 574.996 548.818C584.367 547.805 595.476 547.725 604.866 548.573C613.142 549.32 621.613 551.737 629.834 553.161C641.92 555.255 669.033 557.676 679.135 562.51C680.525 564.149 681.451 565.674 681.28 567.917C681.011 571.439 679.181 573.61 676.779 575.977C666.75 575.341 657.197 573.314 647.296 571.854C642.135 571.093 636.907 570.912 631.769 569.964C622.142 568.186 612.662 566.014 602.897 565.069C593.615 564.17 584.087 564.504 574.779 564.919L574.776 593.083C585.447 593.878 596.984 592.327 607.411 594.255C614.685 595.601 621.677 598.292 628.737 600.45C648.782 606.578 669.171 614.175 689.81 617.895C697.262 615.423 705.732 613.035 713.182 616.949C717.151 619.034 719.838 622.719 720.957 627.024C722.249 632.124 721.44 637.529 718.712 642.027C716.353 645.93 712.617 648.802 708.153 649.842C703.262 650.981 697.577 649.94 693.413 647.132C688.888 644.08 686.826 639.617 685.344 634.587C673.828 630.206 661.711 627.731 649.981 624.088C640.083 621.015 630.273 617.611 620.367 614.522C614.96 612.836 609.605 610.825 603.984 609.97C594.635 608.549 584.301 609.788 574.811 609.563L574.779 634.773C585.993 634.702 597.517 634.127 608.7 634.993C620.174 644.272 628.381 678.916 637.396 693.244C643.701 695.254 648.934 697.191 652.088 703.54C655.143 709.69 653.694 716.288 651.791 722.515C645.938 727.011 640.687 729.792 633.013 728.841C626.432 728.025 622.217 723.832 617.649 719.473C617.216 711.93 617.016 706.432 621.808 700.086C617.646 692.678 615.554 685.23 612.264 677.499C608.548 668.765 604.137 660.405 600.493 651.636C592.631 649.974 584.335 650.9 576.355 650.971C575.975 693.415 575.981 735.862 576.374 778.306L576.332 821.366C576.264 831.783 575.892 842.262 576.376 852.669C589.136 853.05 603.377 852.082 615.831 853.261C615.663 869.377 615.617 885.494 615.693 901.611C615.717 910.237 616.325 919.305 615.604 927.868L503.877 927.922C490.614 927.937 477.304 927.672 464.046 927.979C464.026 903.17 463.493 878.262 464.538 853.475C474.197 852.799 483.98 853.117 493.659 853.143C497.498 853.154 502.806 853.841 506.426 852.854C506.839 851.813 506.834 851.584 506.743 850.519C507.547 832.232 507.024 813.725 507.021 795.418C507.02 784.565 508.339 760.054 505.628 750.389C504.526 742.439 499.913 734.389 494.836 728.313C480.298 710.915 464.122 721.025 444.352 719.121C440.078 718.709 435.565 718.201 431.443 716.949C428.09 715.93 424.898 714.115 421.783 712.519C410.544 706.761 402.803 701.06 394.63 691.363C392.29 688.585 389.746 685.789 387.822 682.699C384.582 677.498 382.048 670.127 380.401 664.208C379.23 660 377.965 655.117 377.588 650.771C377.395 648.554 377.862 646.247 377.38 644.047C377.184 643.155 376.93 642.576 376.287 641.93C372.586 638.215 363.925 637.002 359.043 635.122C348.344 631.003 338.147 623.237 330.97 614.354C317.809 598.062 313.892 579.796 316.263 559.154C318.292 541.485 327.492 526.152 341.334 515.075C340.254 504.113 340.525 494.535 345.088 484.333C334.074 469.82 329.933 461.946 328.866 443.319C327.914 426.705 334.328 408.992 345.425 396.65C354.984 386.02 368.516 378.093 382.687 375.794C389.094 374.755 395.844 374.729 402.334 374.353C403.636 368.381 404.72 362.643 406.981 356.925C413.496 340.446 426.039 327.875 442.317 320.885C457.053 314.558 477.176 315.011 491.928 320.998C495.628 322.974 499.253 325.087 502.795 327.336C504.187 328.235 505.469 329.52 506.913 330.265C520.322 341.996 530.313 357.755 531.464 375.983C531.948 383.647 531.643 391.467 531.608 399.149L531.562 434.103L531.579 551.242L531.552 619.14C531.568 629.102 532.713 643.732 531.104 653.229C529.185 664.558 522.328 682.316 514.757 691.043C509.587 697.002 502.715 701.659 496.95 707.03L500.936 710.016C504.098 712.373 506.814 715.761 509.259 718.827C516.711 728.174 521.077 737.276 522.759 749.211C524.113 758.817 523.017 770.57 523.011 780.418C522.996 804.654 522.752 828.92 523.062 853.152C531.425 852.519 553.046 854.519 559.142 852.893C558.604 834.046 559.062 815.09 559.075 796.232L559.083 692.448L559.131 411.242C559.049 398.417 557.897 384.588 560.059 371.966ZM401.004 415.347C398.964 407.218 397.621 399.014 398.631 390.625C386.84 390.945 375.555 393.017 365.779 400.051C354.983 407.818 347.409 420.898 345.3 433.958C343.049 447.892 347.443 459.196 355.511 470.319C360.586 465.968 374.052 461.269 380.989 461.715C385.656 462.015 387.663 463.498 390.655 466.886C390.586 468.964 390.562 471.418 389.462 473.254C386.7 477.867 379.91 477.86 375.257 478.984C369.384 480.404 363.545 484.61 360.509 489.845C356.978 495.934 356.092 503.75 358.13 510.458C360.835 519.365 367.892 524.799 376.535 527.324C379.974 528.328 383.858 529.074 386.974 530.897C388.69 531.901 390.597 533.581 390.948 535.653C391.331 537.909 390.416 540.08 389.121 541.893C387.999 543.462 386.279 544.008 384.445 544.218C370.241 545.845 359.427 537.849 349.157 529.341C343.307 534.478 337.298 544.264 334.416 551.481C329.717 563.248 329.355 576.227 334.459 587.913C343.642 608.937 352.394 614.668 372.979 622.766C371.245 616.571 371.158 611.216 372.547 604.95C374.622 595.595 378.183 588.383 384.521 581.245C385.849 579.751 387.235 578.006 388.964 576.967C391.252 575.593 394.21 575.479 396.732 576.236C398.579 576.791 400.613 578.014 401.435 579.846C404.492 586.65 392.344 596.605 389.881 603.06C387.579 609.089 388.762 615.989 391.261 621.741C394.467 629.119 399.377 635.206 407.11 638.144C413.437 640.548 421.307 640.155 427.516 637.405C430.394 636.131 432.997 634.286 435.925 633.093C437.728 632.359 440.056 631.923 441.861 632.9C443.636 633.861 444.803 636.113 445.309 637.987C445.914 640.225 445.563 642.52 444.348 644.49C441.418 649.245 434.012 652.889 428.658 654.124C425.448 654.864 421.92 654.816 418.64 654.922C408.659 655.247 402.225 654.193 393.527 648.96C396.665 663.449 401.316 676.115 412.089 686.674C423.547 697.937 439.081 704.075 455.143 703.685C470.391 703.387 486.669 696.627 497.25 685.554C505.211 677.222 511.743 664.875 514.052 653.59C515.726 645.409 515.297 636.768 515.305 628.453L515.324 597.467C515.542 559.803 515.39 522.137 514.869 484.476C511.614 492.222 509.076 502.136 501.876 507.427C494.254 513.029 482.971 517.371 473.532 515.78C461.613 513.771 452.692 505.76 445.969 496.225C437.023 499.517 429.169 502.28 419.609 499.92C410.242 497.608 398.309 491.888 393.346 483.168C391.747 480.359 391.227 477.221 392.181 474.102C392.692 472.429 393.585 470.228 395.396 469.598C401.224 467.571 411.216 479.432 416.624 481.94C422.689 484.758 429.639 484.992 435.88 482.587C443.007 479.867 447.917 475.067 450.975 468.116C454.587 459.91 453.439 451.726 448.692 444.315C446.95 441.596 444.672 438.683 443.594 435.626C442.947 433.79 442.767 431.855 443.807 430.123C445.008 428.122 447.954 425.969 450.268 425.646C452.688 425.308 455.034 426.366 456.835 427.912C466.651 436.336 471.083 455.185 468.292 467.509C467.541 470.826 460.517 486.377 460.724 487.455C461.355 490.735 464.678 493.72 467.268 495.555C471.896 498.834 476.84 500.172 482.472 499.135C489.918 497.765 495.996 491.027 498.219 484.009C499.382 480.337 499.868 475.811 502.125 472.626C503.059 471.308 504.328 470.259 505.995 470.087C509.217 469.754 511.971 472.588 514.202 474.519L514.796 474.466C516.434 468.923 515.408 430.118 514.92 421.994C503.922 427.541 492.772 429.73 480.729 426.367C470.383 423.477 460.638 415.949 455.483 406.462C450.227 396.789 449.223 383.893 452.44 373.417C455.666 362.916 463.604 353.418 473.445 348.434C476.284 346.997 479.587 346.177 482.688 347.27C484.475 347.9 485.719 349.139 486.486 350.86C488.148 354.584 486.698 357.787 485.413 361.333C481 362.762 477.549 364.817 474.233 368.073C469.12 373.092 466.635 379.067 466.754 386.24C466.872 393.327 469.539 400.319 474.788 405.178C477.833 407.973 481.5 410.004 485.485 411.102C497.231 414.411 503.607 407.333 514.315 407.036L515.154 407.016C515.439 386.555 517.005 374.883 507.469 355.794C502.398 345.642 492.137 338.033 481.496 334.491C470.239 330.744 458.146 331.489 447.572 336.831C431.099 345.153 425.212 353.009 419.491 370.266C426.503 369.907 433.954 369.57 440.548 372.416C443.856 373.844 447.16 376.186 448.386 379.739C449.133 381.901 448.417 384.393 447.335 386.334C443.26 393.64 431.026 384.166 424.043 385.998C421.835 386.577 419.948 387.793 418.326 389.381C409.512 398.018 420.946 409.948 415.586 417.589C414.768 418.755 413.69 419.384 412.293 419.615C408.266 420.281 404.162 417.438 401.004 415.347Z"/>
	<path fill="#E44827" d="M559.131 411.242C561.101 415.597 560.185 461.479 560.266 469.296C560.335 475.99 561.048 482.704 560.914 489.389C560.787 495.723 559.962 502.043 559.939 508.375C559.912 515.832 560.274 523.305 560.282 530.77C560.299 546.793 560.037 562.701 560.495 578.731L560.673 576.91C561.119 586.26 560.019 595.502 560.116 604.828C560.164 609.406 560.811 613.924 560.956 618.484C561.1 623.007 560.472 627.509 560.376 632.022C560.254 637.766 560.84 643.567 560.529 649.29C560.092 657.307 559.686 666.258 560.504 674.214L560.942 668.434C561.228 673.905 560.506 679.197 560.346 684.643C560.132 691.898 560.268 699.199 560.293 706.459L560.281 802.141L560.306 828.922C560.334 836.935 561.183 845.031 559.142 852.893C558.604 834.046 559.062 815.09 559.075 796.232L559.083 692.448L559.131 411.242Z"/>
	<path fill="#E44827" d="M480.272 608.664C483.244 608.233 485.439 608.358 488.148 609.757C495.253 613.425 502.29 623.616 504.703 631.169C508.171 642.025 507.208 655.137 501.954 665.269C496.958 674.905 487.704 681.937 477.413 685.095C464.754 688.981 454.731 687.038 443.248 681.009C441.557 679.947 439.713 678.953 438.206 677.633C435.934 675.643 434.254 672.534 434.162 669.485C434.1 667.446 434.689 665.574 436.224 664.168C442.645 658.289 452.557 669.799 460.932 670.766C467.792 671.558 475.916 669.734 481.329 665.348C486.956 660.789 489.601 655.013 490.417 647.938C491.277 640.48 489.878 633.647 484.244 628.326C482.103 626.304 479.65 624.382 477.895 622.005C476.323 619.877 474.899 616.284 475.606 613.61C476.253 611.165 478.318 609.986 480.272 608.664Z"/>
	<path fill="#E44827" d="M481.496 533.632C483.843 533.631 485.683 533.945 487.646 535.332C492.164 538.525 493.433 545.555 494.146 550.716C495.46 560.225 493.304 571.906 487.263 579.544C481.583 586.725 471.745 591.709 462.683 592.58C450.644 593.737 441.526 589.934 432.377 582.348C430.648 580.634 428.862 578.595 427.591 576.505C426.022 573.928 425.478 570.935 426.294 568.006C426.703 566.538 427.467 565.478 428.842 564.786C439.895 559.226 441.148 572.49 453.027 576.204C458.214 577.825 463.723 576.746 468.396 574.13C487.875 563.227 473.43 547.712 476.206 538.705C477.037 536.008 479.158 534.896 481.496 533.632Z"/>
	<path fill="#E44827" d="M514.202 474.519L514.796 474.466C514.91 474.676 515.032 474.883 515.138 475.098C516.491 477.83 516.248 482.491 515.163 485.246L514.545 485.289C513.66 482.304 514.058 477.704 514.202 474.519Z"/>
	<path fill="#3B648A" d="M945.333 726.169L947.536 729.081C947.302 729.465 947.069 729.851 946.822 730.228C932.701 751.815 914.39 770.919 896.081 788.997C889.793 795.206 883.709 801.657 877.339 807.773C873.09 811.852 868.318 815.416 863.874 819.279C859.278 823.274 854.888 827.51 850.168 831.36C808.251 865.441 761.316 892.835 711.026 912.57C694.504 919.093 677.728 925.033 660.305 928.604C659.924 917.899 660.127 907.148 660.127 896.438C660.127 884.79 659.648 872.94 660.25 861.315C660.507 856.349 661.326 851.399 661.826 846.449C681.937 845.101 702.901 839.034 722.307 833.885C728.956 832.12 735.872 831.623 742.544 829.771C797.043 814.776 849.008 791.758 896.733 761.47C908.391 754.207 919.465 745.654 930.389 737.344C935.103 733.758 939.708 729.618 944.742 726.525L945.333 726.169Z"/>
	<path fill="#3B648A" d="M134.244 729.747C134.262 728.981 134.301 728.224 134.347 727.46C135.533 726.793 136.278 727.309 137.552 727.626C145.849 733.012 153.121 739.524 161.019 745.414C168.165 750.743 175.823 755.744 183.289 760.625C231.724 791.837 284.739 815.286 340.417 830.123C346.707 831.832 353.136 833.047 359.465 834.609C365.524 836.104 371.504 837.897 377.61 839.203C384.139 840.599 390.747 841.464 397.294 842.741C404.706 844.188 412.128 846.312 419.716 846.429C420.412 857.52 420.059 868.761 420.058 879.873L420.037 928.424C402.393 925.102 385.409 918.573 368.783 911.986C350.883 904.893 333.921 896.854 316.888 887.876C312.019 885.309 306.963 882.949 302.216 880.18C242.048 845.078 174.734 788.627 135.136 731.07C134.836 730.631 134.538 730.19 134.244 729.747Z"/>
	<path fill="#E44827" d="M492.928 951.558C495.843 951.273 499.102 951.673 502.048 951.714C509.131 951.818 516.215 951.869 523.3 951.867C546.27 951.719 569.241 951.768 592.21 952.015C592.246 954.601 592.214 957.231 591.632 959.76C589.733 968.018 586.027 976.081 578.729 980.704C576.468 982.483 574.199 984.38 571.567 985.581C567.885 987.26 564.057 988.238 560.058 988.794C550.143 990.174 519.652 990.18 510.338 986.445C501.458 982.885 493.715 973.252 490 964.69C488.227 960.605 486.698 956.958 488.428 952.599C489.932 951.505 491.099 951.693 492.928 951.558Z"/>
	<path fill="#E44827" d="M734.009 493.798C737.801 493.782 741.053 493.745 744.409 495.785C748.525 498.287 750.989 502.884 751.88 507.514C752.915 512.89 751.646 518.452 748.383 522.847C745.671 526.496 741.759 528.851 737.239 529.408C727.832 530.568 723.61 524.927 716.918 519.94L716.444 519.592C707.728 518.957 698.76 519.304 690.014 519.305L643.847 519.336C637.883 519.354 620.79 521.311 616.795 517.178C615.024 515.346 615.576 510.622 615.525 508.193C616.157 507.346 616.796 506.475 617.531 505.714C619.027 504.164 621.128 503.492 623.209 503.205C632.294 501.95 643.513 502.973 652.808 502.979L716.657 503.027C720.302 500.735 723.204 497.222 726.743 494.662C729.169 494.453 731.591 494.099 734.009 493.798Z"/>
	<path fill="#E44827" d="M694.043 563.337C698.999 563.216 704.202 564.637 709.04 565.593C720.271 567.812 735.223 571.594 746.481 571.848C755.201 572.044 758.849 564.786 767.163 565.139C775.153 565.479 779.167 570.084 784.166 575.601C784.396 576.996 784.549 578.402 784.622 579.814C785.073 587.172 784.012 591.578 779.131 597.14C778.898 597.345 778.671 597.558 778.433 597.757C774.925 600.689 768.893 601.745 764.471 601.089C756.698 599.934 752.548 594.3 748.163 588.45C736.367 585.582 697.069 582.105 689.574 577.738C687.838 576.727 686.297 575.015 685.843 573.019C685.318 570.716 686.458 568.632 687.726 566.78C689.396 564.339 691.246 563.873 694.043 563.337Z"/>
	<path fill="#E44827" d="M749.853 406.199C752.841 406.642 756.096 406.931 758.908 408.085C763.12 409.812 766.481 412.713 768.221 416.982C770.085 421.552 769.932 427.132 767.878 431.613C765.971 435.792 762.471 439.034 758.158 440.616C749.934 443.573 743.818 440.255 736.658 436.7C733.524 437.347 730.506 438.116 727.449 439.062C722.194 439.972 715.402 443.516 710.124 441.851C707.937 441.161 706.635 439.559 705.677 437.548C704.905 435.925 704.651 434.154 705.283 432.435C708.057 424.893 725.087 423.729 731.95 420.549L732.52 420.278C733.451 418.708 734.415 417.158 735.41 415.628C739.095 410.083 743.423 407.494 749.853 406.199Z"/>
	<path fill="#E44827" d="M684.03 434.604C688.636 433.621 694.2 431.877 698.549 434.665C699.951 435.563 701.084 436.875 701.414 438.55C701.846 440.739 700.625 443.076 699.251 444.695C696.654 447.753 693.46 448.778 689.762 449.938C683.294 451.353 677.12 453.766 670.699 455.312C662.829 457.497 638.673 466.961 632.086 462.789C630.842 462.002 630.25 460.65 629.929 459.271C629.373 456.882 629.412 453.63 630.953 451.587C632.77 449.177 661.218 440.65 665.381 439.968C671.662 439.349 678.132 436.758 684.03 434.604Z"/>
	<path fill="#1A255B" d="M126.3 717.91C129.903 721.301 134.27 723.939 137.552 727.626C136.278 727.309 135.533 726.793 134.347 727.46C134.301 728.224 134.262 728.981 134.244 729.747C131.176 726.05 128.737 722.037 126.3 717.91Z"/>
	<path fill="#1A255B" d="M945.333 726.169C948.416 723.568 951.581 721.067 954.823 718.669C952.238 722.037 949.576 725.342 947.536 729.081L945.333 726.169Z"/>
</svg>
